<?xml version="1.0" encoding="UTF-8"?>
<svg id="Layer_1" data-name="Layer 1" xmlns="http://www.w3.org/2000/svg" viewBox="0 0 1230 600">
  <defs>
    <style>
      .cls-1 {
        fill: #181818;
      }

      .cls-2 {
        fill: #ca3634;
      }
    </style>
  </defs>
  <rect class="cls-1" width="1230" height="600"/>
  <g>
    <path class="cls-2" d="M184.15,376.47c-6.73-8.96-8.44-21.11-8.29-32.16v-10.04c8.41-.46,12.62-.69,21.03-1.13,0,4.78,0,7.17,0,11.94,0,11.28,3.84,16.67,11.52,16.19,3.77-.24,6.64-1.77,8.59-4.6,1.95-2.83,2.93-7.28,2.94-13.36,0-7.23-1.34-13.53-4.04-18.92-2.69-5.39-8.02-11.8-14.96-19.28-7.24-7.81-14.59-16.47-19.21-26.38-3.69-7.93-5.53-18.72-5.46-27.32,.09-10.94,2.12-23.09,8.5-32.3,4.94-7.14,16.36-11.68,24.69-11.38,10.26,.37,18.83,3.76,24.18,11.16,6.51,9.01,8.33,20.88,8.18,31.86v7.09c-8.42,.16-12.63,.24-21.04,.41,0-3.55,0-5.32,0-8.87,0-5.91-.94-10.22-2.83-12.91-1.89-2.69-4.65-4.02-8.3-3.99-7.42,.07-11.13,5.67-11.13,16.77,0,6.3,1.38,12.16,4.14,17.55,2.76,5.39,8.07,11.89,15.07,19.38,7.23,7.74,14.7,16.19,19.21,26.11,3.71,8.15,5.33,19.15,5.25,27.9-.11,11.12-2.2,23.39-8.61,32.8-5.01,7.36-16.35,12.69-24.97,13.04-10.45,.42-19.07-2.38-24.45-9.55Z"/>
    <path class="cls-2" d="M249.12,210.16c8.99,0,13.48-.01,22.46-.02,4.81,43.54,9.64,87.09,14.49,130.62l.4-.02c4.86-43.55,9.75-87.09,14.65-130.63,8.18,0,12.26,0,20.44-.02-7.23,55.88-14.42,111.76-21.57,167.65-9.85,.54-19.69,1.11-29.53,1.71-7.16-56.43-14.28-112.86-21.35-169.3Z"/>
    <path class="cls-2" d="M332.29,210.09c20.24-.01,40.48-.03,60.71-.04,0,9.33-.01,14-.02,23.33-12.82,.08-25.64,.16-38.45,.25-.01,14.53-.02,29.06-.03,43.59,10.19-.19,20.37-.37,30.56-.54,0,9.35-.01,14.03-.02,23.38-10.19,.22-20.37,.47-30.56,.73-.01,16.89-.03,33.77-.04,50.66,12.82-.5,25.64-.96,38.45-1.39,0,9.33-.01,14-.02,23.33-20.24,.8-40.48,1.69-60.72,2.67,.04-55.32,.08-110.65,.12-165.97Z"/>
    <path class="cls-2" d="M405.76,210.05c8.9,0,13.36,0,22.26-.01-.03,46.32-.06,92.64-.1,138.96,12.21-.34,24.43-.64,36.64-.91,0,9.2,0,13.81-.01,23.01-19.64,.5-39.28,1.11-58.92,1.82,.04-54.29,.08-108.58,.12-162.87Z"/>
    <path class="cls-2" d="M476.98,232.99c-9.31,.03-13.97,.05-23.28,.09,0-9.22,0-13.83,.01-23.05,22.94,0,45.87-.02,68.81-.02,0,9.14,0,13.71,0,22.84-9.31,.02-13.97,.03-23.28,.06-.02,45.8-.04,91.6-.07,137.4-8.91,.17-13.37,.27-22.27,.48,.03-45.94,.05-91.87,.08-137.81Z"/>
    <path class="cls-2" d="M533.26,210c20.24,0,40.48,0,60.71,0,0,9.1,0,13.65,0,22.75-12.82,0-25.64,.02-38.46,.04,0,14.05,0,28.1-.01,42.15,10.19-.04,20.38-.07,30.57-.08,0,9.1,0,13.65,0,22.76-10.19,.02-20.38,.06-30.57,.11,0,16.33,0,32.66-.01,48.99,12.83-.1,25.65-.17,38.48-.2,0,9.1,0,13.65,0,22.75-20.25,.07-40.51,.23-60.76,.48,.02-53.25,.04-106.5,.05-159.75Z"/>
    <path class="cls-2" d="M639.1,210c19.63,0,39.26,0,58.89,0,0,9.14,0,13.71,0,22.85-12.21-.03-24.42-.06-36.63-.07,0,14.81,0,29.62,.01,44.44,9.58,.04,19.16,.09,28.75,.15,0,9.14,0,13.7,0,22.84-9.58-.08-19.17-.15-28.75-.2,0,23.17,.01,46.34,.02,69.5-8.91-.09-13.37-.12-22.28-.17,0-53.12-.02-106.23-.02-159.35Z"/>
    <path class="cls-2" d="M708.72,210.01c8.9,0,13.36,0,22.26,0,.02,45.89,.05,91.77,.07,137.66,12.22,.23,24.43,.5,36.65,.8,0,9.23,0,13.85,.01,23.08-19.64-.56-39.28-1.03-58.93-1.38-.02-53.39-.05-106.78-.07-160.16Z"/>
    <path class="cls-2" d="M778.33,210.03c8.9,0,13.36,0,22.26,.01,.04,54.18,.08,108.37,.12,162.55-8.91-.31-13.36-.45-22.27-.73-.04-53.95-.07-107.89-.11-161.84Z"/>
    <path class="cls-2" d="M824.29,365.29c-6.44-8.39-8.55-19.45-8.42-29.89-.02-29.2-.04-58.4-.06-87.6-.15-10.33,1.89-21.35,8.38-29.57,5.51-6.98,13.72-10.5,24.38-10.5s18.89,3.54,24.39,10.64c6.52,8.4,8.55,19.62,8.42,30.12,0,7.01,0,10.52,.01,17.54-8.42-.14-12.63-.21-21.05-.34,0-7.63,0-11.45-.01-19.08,0-10.21-3.72-15.34-11.14-15.38-7.42-.05-11.13,5.01-11.12,15.16,.02,30.53,.05,61.05,.07,91.58,0,9.99,3.72,15.12,11.14,15.4,7.42,.28,11.13-4.59,11.12-14.65,0-10.08-.01-15.12-.02-25.21,8.42,.24,12.63,.37,21.05,.63,0,9.38,.01,14.08,.02,23.46,.16,10.35-1.79,21.53-8.37,29.71-5.49,6.83-13.72,9.98-24.38,9.52-10.66-.47-18.87-4.32-24.4-11.52Z"/>
    <path class="cls-2" d="M894.7,210.1c8.9,0,13.36,0,22.26,.02,.02,23.56,.03,47.12,.05,70.68,9.49-23.53,18.92-47.08,28.29-70.66,8.9,0,13.36,.01,22.26,.02-8.77,20.71-17.59,41.39-26.47,62.06,9.07,36.21,18.05,72.44,26.96,108.68-9.3-.6-13.95-.89-23.26-1.46-6.25-25.37-12.54-50.73-18.86-76.08-3.56,8.44-5.33,12.65-8.89,21.04,.01,17.81,.02,35.62,.04,53.43-8.9-.49-13.35-.73-22.25-1.19-.04-55.52-.08-111.03-.12-166.55Z"/>
    <path class="cls-2" d="M981.58,373.09c-6.2-9.34-8.44-21.21-8.3-32.42,0-3.91,0-5.87,0-9.78,8.41,.39,12.62,.59,21.03,1.01,0,4.73,0,7.1,0,11.83,0,11.17,3.85,16.98,11.53,17.46,3.77,.24,6.64-.95,8.59-3.56,1.95-2.61,2.93-6.99,2.93-13.12,0-7.29-1.35-13.8-4.05-19.47-2.7-5.67-7.99-12.58-14.97-20.58-7.17-8.22-14.57-17.07-19.23-27.3-3.65-8.01-5.4-17.04-5.47-26.91-.08-10.82,2.13-22.48,8.49-31.37,5.02-7.03,16.4-11.45,24.69-11.16,10.28,.36,18.85,3.79,24.19,11.38,6.56,9.32,8.34,21.53,8.2,32.8v7.28c-8.42-.19-12.62-.28-21.04-.46,0-3.58,0-5.37,0-8.96,0-5.97-.95-10.34-2.84-13.1-1.89-2.76-4.65-4.15-8.3-4.18-7.42-.07-11.13,5.4-11.12,16.41,0,6.25,1.39,12.11,4.15,17.6,2.77,5.5,7.79,12.27,15.08,20.24,7.59,8.31,14.69,17.55,19.22,27.95,3.76,8.63,5.32,19.97,5.26,29.12-.08,10.96-1.65,23.52-8.59,32.52-5.59,7.24-14.39,10.06-24.96,9.64-8.45-.33-19.62-5.58-24.47-12.87Z"/>
  </g>
</svg>